<svg xmlns="http://www.w3.org/2000/svg" style="display: none;">
   
  <symbol
    id="off"
    viewBox="0 0 24 24"
    fill="none"
    stroke="currentColor"
    stroke-width="1.5"
    stroke-linecap="round"
    stroke-linejoin="round"
  >
    <path fill="currentColor" stroke="none" stroke-width="0" stroke-linecap="round" stroke-linejoin="round"
      d="M 14.00,24.00
        C 14.00,24.00 14.00,22.00 14.00,22.00
          14.00,22.00 4.00,21.00 4.00,21.00
          5.61,17.93 6.19,16.69 5.88,13.08
          5.68,10.64 4.41,8.48 5.88,6.17
          8.86,1.42 16.43,1.38 18.56,6.95
          18.56,6.95 18.00,19.00 18.00,19.00
          18.00,19.00 23.00,19.00 23.00,19.00
          23.00,16.02 23.16,11.82 22.47,9.00
          21.96,6.90 21.11,4.96 19.58,3.39
          17.88,1.64 15.43,0.50 13.00,0.25
          0.45,-1.00 -3.03,19.27 6.13,23.11
          8.42,24.07 11.54,23.98 14.00,24.00 Z" />
  </symbol>

  <symbol
      id="on"
      viewBox="0 0 24 24"
      fill="none"
      stroke="currentColor"
      stroke-width="1.5"
      stroke-linecap="round"
      stroke-linejoin="round"
   >
    <path fill="#4A90E2" stroke="none" stroke-width="0" stroke-linecap="round" stroke-linejoin="round"
      d="M 14.00,24.00
        C 14.00,24.00 14.00,22.00 14.00,22.00
          14.00,22.00 4.00,21.00 4.00,21.00
          5.61,17.93 6.19,16.69 5.88,13.08
          5.68,10.64 4.41,8.48 5.88,6.17
          8.86,1.42 16.43,1.38 18.56,6.95
          18.56,6.95 18.00,19.00 18.00,19.00
          18.00,19.00 23.00,19.00 23.00,19.00
          23.00,16.02 23.16,11.82 22.47,9.00
          21.96,6.90 21.11,4.96 19.58,3.39
          17.88,1.64 15.43,0.50 13.00,0.25
          0.45,-1.00 -3.03,19.27 6.13,23.11
          8.42,24.07 11.54,23.98 14.00,24.00 Z" />
   </symbol>
</svg>