<svg xmlns="http://www.w3.org/2000/svg" style="display: none;">

  <symbol
    id="off"
    viewBox="0 0 24 24"
    fill="none"
    stroke="currentColor"
    stroke-width="1.5"
    stroke-linecap="round"
    stroke-linejoin="round"
  >
    <path fill="currentColor" stroke="none" stroke-width="0" stroke-linecap="round" stroke-linejoin="round"
      d="M 10.80,0.09
        C 9.40,0.30 8.53,0.45 7.20,1.02
          4.64,2.11 2.46,4.18 1.25,6.68
          -0.58,10.46 -0.31,15.13 2.00,18.64
          2.89,20.00 4.05,21.12 5.40,22.01
          6.28,22.60 7.46,23.15 8.48,23.44
          9.21,23.65 10.04,23.84 10.80,23.92
          10.80,23.92 11.16,23.92 11.16,23.92
          11.16,23.92 11.56,23.96 11.56,23.96
          13.66,23.98 15.32,23.67 17.24,22.79
          18.47,22.22 20.05,21.02 20.94,20.00
          21.63,19.20 22.23,18.35 22.71,17.40
          24.38,14.07 24.38,9.84 22.67,6.52
          21.95,5.13 21.05,3.99 19.88,2.96
          18.94,2.13 17.76,1.41 16.60,0.94
          15.56,0.53 14.00,0.08 12.88,0.09
          12.88,0.09 10.80,0.09 10.80,0.09 Z
        M 11.40,1.76
        C 11.40,1.76 11.40,7.32 11.40,7.32
          10.46,7.28 9.52,7.13 8.60,6.91
          8.60,6.91 7.76,6.68 7.76,6.68
          8.35,5.28 9.07,4.15 10.06,3.00
          10.36,2.66 11.00,1.92 11.40,1.76 Z
        M 12.68,1.76
        C 13.15,2.12 13.58,2.60 13.97,3.04
          14.92,4.12 15.68,5.35 16.24,6.68
          16.24,6.68 14.92,7.02 14.92,7.02
          14.17,7.19 13.37,7.28 12.60,7.32
          12.60,7.32 12.60,3.52 12.60,3.52
          12.60,3.52 12.60,2.32 12.60,2.32
          12.60,2.32 12.68,1.76 12.68,1.76 Z
        M 9.36,2.04
        C 9.36,2.04 8.49,3.12 8.49,3.12
          7.89,3.92 7.01,5.34 6.68,6.28
          6.30,6.18 5.33,5.68 4.96,5.47
          4.84,5.40 4.46,5.22 4.44,5.07
          4.42,4.96 4.58,4.80 4.65,4.72
          4.89,4.45 5.16,4.23 5.44,4.01
          6.30,3.32 7.31,2.70 8.36,2.33
          8.69,2.22 9.01,2.07 9.36,2.04 Z
        M 19.60,5.12
        C 19.06,5.47 17.92,6.12 17.32,6.28
          16.92,5.27 16.37,4.32 15.74,3.44
          15.74,3.44 14.64,2.04 14.64,2.04
          15.00,2.07 15.54,2.29 15.88,2.42
          16.86,2.82 17.79,3.36 18.60,4.04
          18.90,4.28 19.50,4.76 19.60,5.12 Z
        M 6.24,7.36
        C 6.24,7.36 5.97,8.32 5.97,8.32
          5.72,9.32 5.52,10.36 5.52,11.40
          5.52,11.40 1.68,11.40 1.68,11.40
          1.78,10.17 2.00,9.19 2.46,8.04
          2.58,7.74 2.70,7.44 2.86,7.16
          2.86,7.16 3.35,6.36 3.35,6.36
          3.41,6.27 3.49,6.10 3.60,6.08
          3.73,6.06 4.23,6.38 4.36,6.45
          4.36,6.45 5.68,7.09 5.68,7.09
          5.68,7.09 6.24,7.36 6.24,7.36 Z
        M 22.32,11.40
        C 22.32,11.40 18.48,11.40 18.48,11.40
          18.48,10.73 18.32,9.58 18.16,8.92
          18.16,8.92 17.76,7.36 17.76,7.36
          17.76,7.36 19.68,6.43 19.68,6.43
          19.81,6.36 20.27,6.06 20.40,6.08
          20.51,6.10 20.59,6.27 20.65,6.36
          20.65,6.36 21.14,7.16 21.14,7.16
          21.63,8.00 22.07,9.50 22.22,10.48
          22.22,10.48 22.32,11.40 22.32,11.40 Z
        M 11.40,8.48
        C 11.40,8.48 11.40,11.40 11.40,11.40
          11.40,11.40 6.68,11.40 6.68,11.40
          6.73,10.29 6.95,8.80 7.36,7.76
          8.42,8.11 10.29,8.48 11.40,8.48 Z
        M 16.68,7.76
        C 16.68,7.76 17.14,9.68 17.14,9.68
          17.14,9.68 17.32,11.40 17.32,11.40
          17.32,11.40 12.60,11.40 12.60,11.40
          12.60,11.40 12.60,8.48 12.60,8.48
          12.60,8.48 14.68,8.26 14.68,8.26
          14.68,8.26 16.00,7.95 16.00,7.95
          16.00,7.95 16.68,7.76 16.68,7.76 Z
        M 5.52,12.60
        C 5.52,13.44 5.64,14.42 5.84,15.24
          5.84,15.24 6.20,16.64 6.20,16.64
          6.20,16.64 4.32,17.57 4.32,17.57
          4.19,17.64 3.72,17.94 3.60,17.92
          3.49,17.90 3.41,17.73 3.35,17.64
          3.35,17.64 2.86,16.84 2.86,16.84
          2.70,16.56 2.58,16.26 2.46,15.96
          2.00,14.81 1.78,13.83 1.68,12.60
          1.68,12.60 5.52,12.60 5.52,12.60 Z
        M 11.40,12.60
        C 11.40,12.60 11.40,15.52 11.40,15.52
          10.75,15.52 9.33,15.72 8.68,15.88
          8.68,15.88 7.32,16.24 7.32,16.24
          7.06,15.46 6.88,14.66 6.77,13.84
          6.77,13.84 6.64,12.60 6.64,12.60
          6.64,12.60 11.40,12.60 11.40,12.60 Z
        M 17.32,12.60
        C 17.29,12.81 17.28,12.82 17.28,13.04
          17.28,13.91 17.00,15.43 16.68,16.24
          16.68,16.24 15.48,15.92 15.48,15.92
          14.71,15.73 13.38,15.52 12.60,15.52
          12.60,15.52 12.60,12.60 12.60,12.60
          12.60,12.60 17.32,12.60 17.32,12.60 Z
        M 22.32,12.60
        C 22.32,12.60 22.22,13.52 22.22,13.52
          22.07,14.50 21.63,16.00 21.14,16.84
          21.14,16.84 20.65,17.64 20.65,17.64
          20.59,17.73 20.51,17.90 20.40,17.92
          20.28,17.94 19.77,17.62 19.64,17.55
          19.04,17.21 18.43,16.91 17.80,16.64
          17.80,16.64 18.12,15.40 18.12,15.40
          18.34,14.49 18.48,13.54 18.48,12.60
          18.48,12.60 22.32,12.60 22.32,12.60 Z
        M 11.40,16.68
        C 11.40,16.68 11.40,22.28 11.40,22.28
          11.30,22.26 11.25,22.25 11.16,22.20
          10.91,22.05 10.31,21.40 10.10,21.16
          9.21,20.11 8.18,18.63 7.72,17.32
          7.72,17.32 9.08,16.98 9.08,16.98
          9.83,16.81 10.63,16.72 11.40,16.68 Z
        M 16.28,17.32
        C 16.21,17.55 15.93,18.12 15.81,18.36
          15.30,19.37 14.62,20.30 13.90,21.16
          13.69,21.40 13.09,22.05 12.84,22.20
          12.75,22.25 12.70,22.26 12.60,22.28
          12.60,22.28 12.60,16.68 12.60,16.68
          13.37,16.72 14.16,16.81 14.92,16.98
          14.92,16.98 16.28,17.32 16.28,17.32 Z
        M 6.64,17.76
        C 7.03,18.67 7.56,19.67 8.12,20.48
          8.12,20.48 9.20,21.92 9.20,21.92
          8.78,21.86 8.24,21.63 7.84,21.46
          6.96,21.08 6.09,20.54 5.36,19.93
          5.00,19.63 4.63,19.31 4.36,18.92
          4.89,18.54 6.01,17.90 6.64,17.76 Z
        M 14.80,21.92
        C 14.80,21.92 15.88,20.48 15.88,20.48
          16.43,19.69 16.98,18.65 17.36,17.76
          17.86,17.87 18.59,18.27 19.04,18.53
          19.16,18.59 19.54,18.80 19.56,18.93
          19.58,19.03 19.45,19.17 19.39,19.24
          19.16,19.51 18.87,19.73 18.60,19.96
          17.81,20.61 16.98,21.11 16.04,21.51
          15.70,21.66 15.16,21.87 14.80,21.92 Z" />
  </symbol>

  <symbol
    id="on"
    viewBox="0 0 24 24"
    fill="none"
    stroke="currentColor"
    stroke-width="1.5"
    stroke-linecap="round"
    stroke-linejoin="round"
  >
    <path fill="#4A90E2" stroke="none" stroke-width="0" stroke-linecap="round" stroke-linejoin="round"
      d="M 10.80,0.09
        C 9.40,0.30 8.53,0.45 7.20,1.02
          4.64,2.11 2.46,4.18 1.25,6.68
          -0.58,10.46 -0.31,15.13 2.00,18.64
          2.89,20.00 4.05,21.12 5.40,22.01
          6.28,22.60 7.46,23.15 8.48,23.44
          9.21,23.65 10.04,23.84 10.80,23.92
          10.80,23.92 11.16,23.92 11.16,23.92
          11.16,23.92 11.56,23.96 11.56,23.96
          13.66,23.98 15.32,23.67 17.24,22.79
          18.47,22.22 20.05,21.02 20.94,20.00
          21.63,19.20 22.23,18.35 22.71,17.40
          24.38,14.07 24.38,9.84 22.67,6.52
          21.95,5.13 21.05,3.99 19.88,2.96
          18.94,2.13 17.76,1.41 16.60,0.94
          15.56,0.53 14.00,0.08 12.88,0.09
          12.88,0.09 10.80,0.09 10.80,0.09 Z
        M 11.40,1.76
        C 11.40,1.76 11.40,7.32 11.40,7.32
          10.46,7.28 9.52,7.13 8.60,6.91
          8.60,6.91 7.76,6.68 7.76,6.68
          8.35,5.28 9.07,4.15 10.06,3.00
          10.36,2.66 11.00,1.92 11.40,1.76 Z
        M 12.68,1.76
        C 13.15,2.12 13.58,2.60 13.97,3.04
          14.92,4.12 15.68,5.35 16.24,6.68
          16.24,6.68 14.92,7.02 14.92,7.02
          14.17,7.19 13.37,7.28 12.60,7.32
          12.60,7.32 12.60,3.52 12.60,3.52
          12.60,3.52 12.60,2.32 12.60,2.32
          12.60,2.32 12.68,1.76 12.68,1.76 Z
        M 9.36,2.04
        C 9.36,2.04 8.49,3.12 8.49,3.12
          7.89,3.92 7.01,5.34 6.68,6.28
          6.30,6.18 5.33,5.68 4.96,5.47
          4.84,5.40 4.46,5.22 4.44,5.07
          4.42,4.96 4.58,4.80 4.65,4.72
          4.89,4.45 5.16,4.23 5.44,4.01
          6.30,3.32 7.31,2.70 8.36,2.33
          8.69,2.22 9.01,2.07 9.36,2.04 Z
        M 19.60,5.12
        C 19.06,5.47 17.92,6.12 17.32,6.28
          16.92,5.27 16.37,4.32 15.74,3.44
          15.74,3.44 14.64,2.04 14.64,2.04
          15.00,2.07 15.54,2.29 15.88,2.42
          16.86,2.82 17.79,3.36 18.60,4.04
          18.90,4.28 19.50,4.76 19.60,5.12 Z
        M 6.24,7.36
        C 6.24,7.36 5.97,8.32 5.97,8.32
          5.72,9.32 5.52,10.36 5.52,11.40
          5.52,11.40 1.68,11.40 1.68,11.40
          1.78,10.17 2.00,9.19 2.46,8.04
          2.58,7.74 2.70,7.44 2.86,7.16
          2.86,7.16 3.35,6.36 3.35,6.36
          3.41,6.27 3.49,6.10 3.60,6.08
          3.73,6.06 4.23,6.38 4.36,6.45
          4.36,6.45 5.68,7.09 5.68,7.09
          5.68,7.09 6.24,7.36 6.24,7.36 Z
        M 22.32,11.40
        C 22.32,11.40 18.48,11.40 18.48,11.40
          18.48,10.73 18.32,9.58 18.16,8.92
          18.16,8.92 17.76,7.36 17.76,7.36
          17.76,7.36 19.68,6.43 19.68,6.43
          19.81,6.36 20.27,6.06 20.40,6.08
          20.51,6.10 20.59,6.27 20.65,6.36
          20.65,6.36 21.14,7.16 21.14,7.16
          21.63,8.00 22.07,9.50 22.22,10.48
          22.22,10.48 22.32,11.40 22.32,11.40 Z
        M 11.40,8.48
        C 11.40,8.48 11.40,11.40 11.40,11.40
          11.40,11.40 6.68,11.40 6.68,11.40
          6.73,10.29 6.95,8.80 7.36,7.76
          8.42,8.11 10.29,8.48 11.40,8.48 Z
        M 16.68,7.76
        C 16.68,7.76 17.14,9.68 17.14,9.68
          17.14,9.68 17.32,11.40 17.32,11.40
          17.32,11.40 12.60,11.40 12.60,11.40
          12.60,11.40 12.60,8.48 12.60,8.48
          12.60,8.48 14.68,8.26 14.68,8.26
          14.68,8.26 16.00,7.95 16.00,7.95
          16.00,7.95 16.68,7.76 16.68,7.76 Z
        M 5.52,12.60
        C 5.52,13.44 5.64,14.42 5.84,15.24
          5.84,15.24 6.20,16.64 6.20,16.64
          6.20,16.64 4.32,17.57 4.32,17.57
          4.19,17.64 3.72,17.94 3.60,17.92
          3.49,17.90 3.41,17.73 3.35,17.64
          3.35,17.64 2.86,16.84 2.86,16.84
          2.70,16.56 2.58,16.26 2.46,15.96
          2.00,14.81 1.78,13.83 1.68,12.60
          1.68,12.60 5.52,12.60 5.52,12.60 Z
        M 11.40,12.60
        C 11.40,12.60 11.40,15.52 11.40,15.52
          10.75,15.52 9.33,15.72 8.68,15.88
          8.68,15.88 7.32,16.24 7.32,16.24
          7.06,15.46 6.88,14.66 6.77,13.84
          6.77,13.84 6.64,12.60 6.64,12.60
          6.64,12.60 11.40,12.60 11.40,12.60 Z
        M 17.32,12.60
        C 17.29,12.81 17.28,12.82 17.28,13.04
          17.28,13.91 17.00,15.43 16.68,16.24
          16.68,16.24 15.48,15.92 15.48,15.92
          14.71,15.73 13.38,15.52 12.60,15.52
          12.60,15.52 12.60,12.60 12.60,12.60
          12.60,12.60 17.32,12.60 17.32,12.60 Z
        M 22.32,12.60
        C 22.32,12.60 22.22,13.52 22.22,13.52
          22.07,14.50 21.63,16.00 21.14,16.84
          21.14,16.84 20.65,17.64 20.65,17.64
          20.59,17.73 20.51,17.90 20.40,17.92
          20.28,17.94 19.77,17.62 19.64,17.55
          19.04,17.21 18.43,16.91 17.80,16.64
          17.80,16.64 18.12,15.40 18.12,15.40
          18.34,14.49 18.48,13.54 18.48,12.60
          18.48,12.60 22.32,12.60 22.32,12.60 Z
        M 11.40,16.68
        C 11.40,16.68 11.40,22.28 11.40,22.28
          11.30,22.26 11.25,22.25 11.16,22.20
          10.91,22.05 10.31,21.40 10.10,21.16
          9.21,20.11 8.18,18.63 7.72,17.32
          7.72,17.32 9.08,16.98 9.08,16.98
          9.83,16.81 10.63,16.72 11.40,16.68 Z
        M 16.28,17.32
        C 16.21,17.55 15.93,18.12 15.81,18.36
          15.30,19.37 14.62,20.30 13.90,21.16
          13.69,21.40 13.09,22.05 12.84,22.20
          12.75,22.25 12.70,22.26 12.60,22.28
          12.60,22.28 12.60,16.68 12.60,16.68
          13.37,16.72 14.16,16.81 14.92,16.98
          14.92,16.98 16.28,17.32 16.28,17.32 Z
        M 6.64,17.76
        C 7.03,18.67 7.56,19.67 8.12,20.48
          8.12,20.48 9.20,21.92 9.20,21.92
          8.78,21.86 8.24,21.63 7.84,21.46
          6.96,21.08 6.09,20.54 5.36,19.93
          5.00,19.63 4.63,19.31 4.36,18.92
          4.89,18.54 6.01,17.90 6.64,17.76 Z
        M 14.80,21.92
        C 14.80,21.92 15.88,20.48 15.88,20.48
          16.43,19.69 16.98,18.65 17.36,17.76
          17.86,17.87 18.59,18.27 19.04,18.53
          19.16,18.59 19.54,18.80 19.56,18.93
          19.58,19.03 19.45,19.17 19.39,19.24
          19.16,19.51 18.87,19.73 18.60,19.96
          17.81,20.61 16.98,21.11 16.04,21.51
          15.70,21.66 15.16,21.87 14.80,21.92 Z" />
  </symbol>

</svg>